<svg xmlns="http://www.w3.org/2000/svg" xmlns:xlink="http://www.w3.org/1999/xlink" width="67.583" height="63.281" viewBox="0 0 67.583 63.281">
  <defs>
    <clipPath id="clip-path">
      <rect width="67.583" height="63.281" fill="none"/>
    </clipPath>
  </defs>
  <g id="Repeat_Grid_4" data-name="Repeat Grid 4" clip-path="url(#clip-path)">
    <g id="Group_81725" data-name="Group 81725" transform="translate(3268.583 -8954)">
      <g id="Group_59217" data-name="Group 59217" transform="translate(-3373.583 8635.056)">
        <g id="Group_81720" data-name="Group 81720">
          <g id="Group_81719" data-name="Group 81719">
            <g id="Group_59215" data-name="Group 59215" transform="translate(105 318.944)">
              <path id="Path_17571" data-name="Path 17571" d="M851.9,1230.8a13.2,13.2,0,1,1,23.33.891l-10.664,18.471,3.193,5.53,12.26-21.236a18.729,18.729,0,1,0-34.015-3.493,20.743,20.743,0,0,1,2.576-.163Z" transform="translate(-829.822 -1206.366)" fill="#fff"/>
              <path id="Path_17572" data-name="Path 17572" d="M904.965,1292.821a18.507,18.507,0,0,0-12.6-9.019,20.531,20.531,0,0,1-1.145,2.321l-1.668,2.89a13.2,13.2,0,1,1-12.242,19.773l-10.633-18.417h-6.385l12.229,21.182a19.328,19.328,0,0,0,1.4,2.083l.1.131a18.508,18.508,0,0,0,14.724,7.152h0a18.73,18.73,0,0,0,16.22-28.1Z" transform="translate(-839.92 -1257.635)" fill="#fff"/>
              <path id="Path_17573" data-name="Path 17573" d="M829.786,1308.759a13.2,13.2,0,1,1-11.027-20.45h21.311l3.193-5.53h-24.5A18.729,18.729,0,1,0,832.9,1313.8a20.563,20.563,0,0,1-1.5-2.233Z" transform="translate(-800 -1256.958)" fill="#fff"/>
            </g>
          </g>
        </g>
      </g>
    </g>
  </g>
</svg>
