<svg xmlns="http://www.w3.org/2000/svg" xmlns:xlink="http://www.w3.org/1999/xlink" width="341.643" height="99.677" viewBox="0 0 341.643 99.677">
  <defs>
    <linearGradient id="linear-gradient" x1="0.018" y1="0.125" x2="1.028" y2="0.797" gradientUnits="objectBoundingBox">
      <stop offset="0" stop-color="#a16ae8"/>
      <stop offset="1" stop-color="#ec75f6"/>
    </linearGradient>
  </defs>
  <g id="Group_81656" data-name="Group 81656" transform="translate(889.367 -6659)">
    <g id="Group_81650" data-name="Group 81650" transform="translate(-811.364 6659.597)">
      <path id="Path_378991" data-name="Path 378991" d="M64.714,0C83.553,23,3.834,12.316.025,27.726-1.528.859,70.5,22.229,64.714,0Z" transform="translate(21.398 22.044) rotate(8)" stroke="rgba(0,0,0,0)" stroke-miterlimit="10" stroke-width="1" fill="url(#linear-gradient)"/>
      <path id="Path_378993" data-name="Path 378993" d="M479.543,295.6c.723-7.425,4.917-21.536,13.051-28.587,2.621-2.249,5.564-4.462,8.407-6.6,6.339-4.769,12.9-9.7,17.328-15.954,4.986-7.06,6.714-16.505,4.4-24.065A19.006,19.006,0,0,0,510.884,207.8a24.681,24.681,0,0,0-8.951-1.715,25.514,25.514,0,0,0-17.247,6.994c3.72-7.939,12.3-13.168,22.338-13.168a27.725,27.725,0,0,1,5.935.641,24.579,24.579,0,0,1,18.875,16.827c3.6,10.865.8,24.109-6.958,32.955-6.037,6.883-14.481,11.984-23.421,17.386-1.873,1.131-3.811,2.3-5.7,3.48C487.93,276.01,482.614,288.013,479.543,295.6Z" transform="translate(-431.751 -199.909)" stroke="rgba(0,0,0,0)" stroke-miterlimit="10" stroke-width="1" fill="url(#linear-gradient)"/>
      <path id="Path_378995" data-name="Path 378995" d="M424.6,291.633c-4.013-6.58-13.681-17.554-20.8-21.485-5.978-3.3-12.159-6.709-16.6-11.614a30.441,30.441,0,0,1-7.05-25.2,21.738,21.738,0,0,1,11.8-15.788,22.206,22.206,0,0,1,9.979-2.39c11.145,0,21.4,8.419,24.51,16.218l.884,2.22,1.088-2.128A18.592,18.592,0,0,1,441.6,221.347c-6.4,3.077-11.772,9.9-15.111,17.051-4.085-9.056-12.106-17.5-22.041-17.5a20.08,20.08,0,0,0-9.388,2.464,15.667,15.667,0,0,0-7.768,11.011c-1.266,6.494.748,14.265,5.129,19.8,3.116,4.02,7.756,7.473,12.67,11.129C412.657,270.929,422.781,283.648,424.6,291.633Z" transform="translate(-379.665 -207.852)" stroke="rgba(0,0,0,0)" stroke-miterlimit="10" stroke-width="1" fill="url(#linear-gradient)"/>
      <path id="Path_378996" data-name="Path 378996" d="M516.4,207.8a19.006,19.006,0,0,1,11.849,12.589c2.311,7.56.582,17-4.4,24.065-3.469,4.893-8.239,8.977-13.184,12.807q1.872.287,3.746.555,3.348.427,6.7.8a57.179,57.179,0,0,0,9.28-8.282c7.759-8.846,10.557-22.089,6.958-32.955a24.579,24.579,0,0,0-18.875-16.827,27.726,27.726,0,0,0-5.935-.641c-10.042,0-18.618,5.229-22.338,13.168a25.514,25.514,0,0,1,17.247-6.994A24.679,24.679,0,0,1,516.4,207.8Z" transform="translate(-437.263 -199.909)" stroke="rgba(0,0,0,0)" stroke-miterlimit="10" stroke-width="1" fill="url(#linear-gradient)"/>
      <path id="Path_378998" data-name="Path 378998" d="M387.749,244.64a23.468,23.468,0,0,1-.448-10.263,15.667,15.667,0,0,1,7.768-11.011,20.08,20.08,0,0,1,9.387-2.464c9.935,0,17.957,8.441,22.041,17.5,3.339-7.153,8.715-13.973,15.111-17.051a18.592,18.592,0,0,0-13.193,10.114l-1.088,2.128-.884-2.22c-3.11-7.8-13.365-16.218-24.51-16.218a22.206,22.206,0,0,0-9.979,2.39,21.738,21.738,0,0,0-11.8,15.788,27.5,27.5,0,0,0-.444,6.479Q383.68,242.309,387.749,244.64Z" transform="translate(-379.67 -207.852)" stroke="rgba(0,0,0,0)" stroke-miterlimit="10" stroke-width="1" fill="url(#linear-gradient)"/>
    </g>
    <path id="Path_378999" data-name="Path 378999" d="M26.247-158.9c-10.834,0-14.9,6.771-14.9,16.657V-64.1H29.226v-77.192h15.3c20.72,0,18.012,28.439,3.386,31.148-4.063.677-13.407.135-15.3-3.656-5.011,7.042-4.74,21.4,14.355,21.4,37.919,0,44.149-66.494.135-66.494Z" transform="translate(-900.714 6818.497)" fill="#172b4d"/>
    <path id="Path_379000" data-name="Path 379000" d="M60.3-64.146H77.367V-144.86c0-7.178-6.5-13.543-17.064-13.813v54.306c0,12.324-4.063,26.273-18.012,26.273-24.783,0-24.377-40.221.135-40.221,4.875,0,11.24,1.219,14.22,5.552,3.115-5.688,1.49-20.585-16.522-21.262C22.926-134.7,6.81-119.535,6.81-98.273,6.81-65.365,40.4-51.822,60.3-71.6ZM138.714-91.1c28.575-7.042,21.262-44.961-12.188-44.961-10.021,0-20.314,2.979-27.491,10.7-19.772,20.72-10.292,62.837,26,62.837,13,0,23.158-4.469,30.471-15.438l-14.22-6.907a22.826,22.826,0,0,1-20.178,6.636c-9.615-1.625-15.574-11.782-15.3-21.939.271-12.188,9.48-20.855,19.772-21.4,14.491-.813,23.158,15.709,5.959,17.2-6.771.677-14.9,1.083-20.449-3.656C105.67-94.617,119.213-86.22,138.714-91.1Z" transform="translate(-704.174 6817.673)" fill="#172b4d"/>
  </g>
</svg>
